<svg xmlns="http://www.w3.org/2000/svg" viewBox="0 0 32 32" fill="none">
  <rect width="32" height="32" rx="8" fill="#7c3aed"/>
  <path d="M22 12a2 2 0 0 0-2-2H12a2 2 0 0 0-2 2v8l3-3h7a2 2 0 0 0 2-2v-3z" stroke="white" stroke-width="1.8" fill="none" stroke-linecap="round" stroke-linejoin="round"/>
  <circle cx="13.5" cy="13.5" r="1" fill="white"/>
  <circle cx="16.5" cy="13.5" r="1" fill="white"/>
  <circle cx="19.5" cy="13.5" r="1" fill="white"/>
  <path d="M17 19v2a1.5 1.5 0 0 0 1.5 1.5H21" stroke="white" stroke-width="1.5" stroke-linecap="round" opacity="0.6"/>
  <circle cx="22.5" cy="22.5" r="2" stroke="white" stroke-width="1.2" fill="none" opacity="0.6"/>
  <path d="M22.5 21.5v1l0.7 0.5" stroke="white" stroke-width="0.8" stroke-linecap="round" opacity="0.6"/>
</svg>
